<svg width="1515" height="806" viewBox="0 0 1515 806" fill="none" xmlns="http://www.w3.org/2000/svg">
<path d="M1451 752.242V17.7583C1451 7.95066 1442.21 0 1431.32 0H1210.15C938.82 68.695 939.094 153.832 939.853 389.209C939.894 402.088 939.937 415.417 939.937 429.218C939.937 671.56 793.706 722.164 686.315 759.326L686.31 759.328C686.308 759.329 686.306 759.329 686.304 759.33C686.301 759.331 686.299 759.332 686.297 759.332C675.811 762.961 665.696 766.462 656.123 770H1431.29C1442.18 770 1451 762.049 1451 752.242Z" fill="#736FE8"/>
<path d="M1210.15 0H1135.26C1115.78 5.33173 1097.99 11.2671 1081.75 17.7587C1074.87 20.5046 1068.28 23.3501 1061.95 26.2914C912.863 95.5562 910.571 218.013 908.162 346.714C905.116 509.474 904.642 682.221 604.091 770H656.123C665.696 766.462 675.811 762.961 686.297 759.332L686.304 759.33L686.31 759.328L686.315 759.326C793.706 722.164 939.937 671.56 939.937 429.218C939.937 415.417 939.894 402.088 939.853 389.209C939.094 153.832 938.82 68.695 1210.15 0Z" fill="#92B3E6"/>
<path fill-rule="evenodd" clip-rule="evenodd" d="M0 752.242V17.7583C0 7.95064 8.69133 0 19.5765 0H1135.26C1115.78 5.33173 1097.99 11.2671 1081.75 17.7587C878.974 93.8841 879.772 231.966 880.586 372.669C881.49 529.012 882.413 688.591 604.091 770H19.7093C8.82417 770 0 762.049 0 752.242Z" fill="white"/>
<path d="M604.091 770C904.642 682.221 905.116 509.474 908.162 346.714C910.571 218.013 912.863 95.5562 1061.95 26.2914C1068.28 23.3501 1074.87 20.5046 1081.75 17.7587C878.974 93.8841 879.772 231.966 880.586 372.669C881.49 529.012 882.413 688.591 604.091 770Z" fill="#C2D6F7"/>
<path d="M700.935 419.629C697.168 414.08 697.168 396.944 697.168 393.218C697.168 389.493 1146.55 212.312 1146.55 212.312C1151.71 210.774 1155.91 210.762 1166.99 213.057L1252.38 250.35L1514.03 348.514C1515.2 354.288 1515.2 372.253 1507.99 376.081C1500.79 379.91 1343.69 447.609 1343.69 447.609L1068.42 568.124C1060.31 570.721 1052.87 569.997 1039.8 568.124L923.576 519.694L700.935 419.629Z" fill="#B7B6E6"/>
<path d="M700.935 401.003C695.874 399.141 694.706 393.18 697.431 389.827L1146.55 193.686C1151.71 192.148 1155.91 192.136 1166.99 194.431L1252.38 231.724L1511.69 343.672C1517.19 347.671 1515.2 353.627 1507.99 357.456C1500.79 361.284 1343.69 428.983 1343.69 428.983L1068.41 549.498C1060.31 552.095 1052.87 551.371 1039.8 549.498L923.576 501.069L700.935 401.003Z" fill="#F4EAF0"/>
<path d="M714.89 398.732C710.69 397.282 709.721 392.644 711.982 390.035L1084.63 237.406C1088.91 236.209 1092.4 236.2 1101.59 237.986L1172.44 267.006L1387.6 354.119C1392.16 357.23 1390.51 361.865 1384.53 364.845C1378.55 367.824 1248.2 420.504 1248.2 420.504L1019.8 514.284C1013.08 516.305 1006.9 515.741 996.055 514.284L899.622 476.598L714.89 398.732Z" fill="url(#paint0_linear_74_104)"/>
<path d="M1120.11 412.67C1118.8 412.188 1118.5 410.646 1119.2 409.779L1234.74 359.038C1236.06 358.64 1237.14 358.637 1239.99 359.231L1261.96 368.878L1328.66 397.839C1330.08 398.873 1329.57 400.414 1327.71 401.404C1325.86 402.395 1285.45 419.908 1285.45 419.908L1214.64 451.085C1212.55 451.756 1210.64 451.569 1207.27 451.085L1177.38 438.556L1120.11 412.67Z" fill="#B0B8EC"/>
<path d="M1341.26 672.994L1054.36 799.098L941.052 745.08L712.391 634.436C712.391 630.711 1153.46 437.698 1153.46 437.698C1158.38 436.159 1162.38 436.147 1172.93 438.443L1254.28 475.736L1511.69 596.251C1504.83 600.08 1341.26 672.994 1341.26 672.994Z" fill="url(#paint1_linear_74_104)" fill-opacity="0.2"/>
<path d="M1341.26 678.21L1054.36 804.313L941.052 750.296L712.391 639.652C712.391 635.927 1153.46 442.913 1153.46 442.913C1158.38 441.375 1162.38 441.363 1172.93 443.659L1254.28 480.951L1511.69 601.467C1504.83 605.296 1341.26 678.21 1341.26 678.21Z" fill="#C2D6F7" fill-opacity="0.05"/>
<path d="M1341.26 590.291L1054.36 716.394L941.052 662.377L712.391 551.733C712.391 548.008 1153.46 354.994 1153.46 354.994C1158.38 353.456 1162.38 353.444 1172.93 355.74L1254.28 393.032L1511.69 513.548C1504.83 517.377 1341.26 590.291 1341.26 590.291Z" fill="url(#paint2_linear_74_104)" fill-opacity="0.4"/>
<path d="M1341.26 595.507L1054.36 721.61L941.052 667.592L712.391 556.949C712.391 553.224 1153.46 360.21 1153.46 360.21C1158.38 358.672 1162.38 358.66 1172.93 360.955L1254.28 398.248L1511.69 518.764C1504.83 522.593 1341.26 595.507 1341.26 595.507Z" fill="url(#paint3_linear_74_104)" fill-opacity="0.1"/>
<path d="M1339.55 514.293L1049.84 640.397L935.411 586.379L704.502 475.736C704.502 472.01 1149.91 278.997 1149.91 278.997C1154.87 277.458 1158.92 277.447 1169.57 279.742L1251.72 317.035L1511.66 437.551C1504.73 441.379 1339.55 514.293 1339.55 514.293Z" fill="url(#paint4_linear_74_104)" fill-opacity="0.6"/>
<path d="M1339.55 519.509L1049.84 645.613L935.411 591.595L704.502 480.951C704.502 477.226 1149.91 284.213 1149.91 284.213C1154.87 282.674 1158.92 282.662 1169.57 284.958L1251.72 322.251L1511.66 442.766C1504.73 446.595 1339.55 519.509 1339.55 519.509Z" fill="url(#paint5_linear_74_104)" fill-opacity="0.2"/>
<path d="M699.922 423.31C696.156 417.761 697.168 402.159 697.168 398.434C697.168 394.708 1146.55 217.528 1146.55 217.528C1151.71 215.989 1155.91 215.977 1166.99 218.273L1252.38 255.566L1514.03 353.729C1515.2 359.503 1515.2 377.468 1507.99 381.297C1500.79 385.126 1343.69 452.824 1343.69 452.824L1068.41 573.34C1060.31 575.936 1052.87 575.212 1039.8 573.34L923.576 524.91L699.922 423.31Z" fill="#9897D4"/>
<path d="M700.935 406.218C695.874 404.355 694.706 398.394 697.431 395.041L1146.55 198.901C1151.71 197.362 1155.91 197.35 1166.99 199.646L1252.38 236.939L1511.69 348.886C1517.19 352.885 1515.2 358.841 1507.99 362.67C1500.79 366.499 1343.69 434.197 1343.69 434.197L1068.41 554.713C1060.31 557.31 1052.87 556.585 1039.8 554.713L923.576 506.283L700.935 406.218Z" fill="#F4EAF0"/>
<path d="M714.89 403.946C710.69 402.497 709.721 397.858 711.982 395.249L1084.63 242.62C1088.91 241.423 1092.4 241.414 1101.59 243.2L1172.44 272.22L1387.6 359.333C1392.16 362.445 1390.51 367.079 1384.53 370.059C1378.55 373.038 1248.2 425.718 1248.2 425.718L1019.8 519.499C1013.08 521.52 1006.9 520.956 996.055 519.499L899.622 481.813L714.89 403.946Z" fill="url(#paint6_linear_74_104)"/>
<path d="M1120.11 417.884C1118.8 417.402 1118.5 415.86 1119.2 414.993L1234.74 364.253C1236.06 363.855 1237.14 363.852 1239.99 364.445L1261.96 374.093L1328.66 403.053C1330.08 404.087 1329.57 405.628 1327.71 406.619C1325.86 407.609 1285.45 425.122 1285.45 425.122L1214.64 456.299C1212.55 456.971 1210.64 456.783 1207.27 456.299L1177.38 443.77L1120.11 417.884Z" fill="#B0B8EC"/>
<path d="M733.007 433.739V424.982L747.389 431.863V440.62L733.007 433.739Z" fill="#565B75"/>
<path d="M752.221 442.7V433.943L766.603 440.823V449.58L752.221 442.7Z" fill="#565B75"/>
<path d="M770.711 451.457V442.7L785.093 449.581V458.338L770.711 451.457Z" fill="#565B75"/>
<path d="M797.651 410.765C795.494 410.007 806.428 412.131 807.589 410.765L998.926 330.885C1001.12 330.258 1002.92 330.254 1007.63 331.188L1044.01 346.376L1154.49 391.968C1156.83 393.597 1155.98 396.022 1152.91 397.582C1149.84 399.141 1082.91 426.712 1082.91 426.712L965.639 475.793C962.187 476.851 959.017 476.556 953.447 475.793L905.039 454.994L797.651 410.765Z" fill="#6959BC"/>
<rect width="226.914" height="2.82711" transform="matrix(0.931218 -0.364462 -0.485657 -0.874149 931.515 470.609)" fill="#B5A7EA"/>
<rect width="12.3346" height="2.82711" rx="1.41355" transform="matrix(0.931218 -0.364462 -0.485657 -0.874149 974.036 439.747)" fill="#B5A7EA"/>
<rect width="12.3346" height="2.82711" rx="1.41355" transform="matrix(0.931218 -0.364462 -0.485657 -0.874149 931.515 458.683)" fill="#B5A7EA"/>
<rect width="12.3346" height="2.82711" rx="1.41355" transform="matrix(0.931218 -0.364462 -0.485657 -0.874149 906.782 449.579)" fill="#B5A7EA"/>
<rect width="12.3346" height="2.82711" rx="1.41355" transform="matrix(0.931218 -0.364462 -0.485657 -0.874149 883.786 439.747)" fill="#B5A7EA"/>
<rect width="12.3346" height="2.82711" rx="1.41355" transform="matrix(0.931218 -0.364462 -0.485657 -0.874149 860.789 428.821)" fill="#B5A7EA"/>
<rect width="12.3346" height="2.82711" rx="1.41355" transform="matrix(0.931218 -0.364462 -0.485657 -0.874149 834.322 418.988)" fill="#B5A7EA"/>
<rect width="226.914" height="2.82711" transform="matrix(0.931218 -0.364462 -0.485657 -0.874149 900.708 460.413)" fill="#B5A7EA"/>
<rect width="226.914" height="2.82711" transform="matrix(0.931218 -0.364462 -0.485657 -0.874149 877.278 450.216)" fill="#B5A7EA"/>
<rect width="226.914" height="2.82711" transform="matrix(0.931218 -0.364462 -0.485657 -0.874149 853.847 442.568)" fill="#B5A7EA"/>
<rect width="226.914" height="2.82711" transform="matrix(0.931218 -0.364462 -0.485657 -0.874149 834.322 428)" fill="#B5A7EA"/>
<rect width="226.914" height="2.82711" transform="matrix(0.931218 -0.364462 -0.485657 -0.874149 813.495 418.896)" fill="#B5A7EA"/>
<rect width="225.938" height="2.84224" transform="matrix(-0.91945 -0.393208 -0.518931 0.854816 1005.28 471.728)" fill="#B5A7EA"/>
<rect width="225.938" height="2.84224" transform="matrix(-0.91945 -0.393208 -0.518931 0.854816 1034.78 461.167)" fill="#B5A7EA"/>
<rect width="225.938" height="2.84224" transform="matrix(-0.91945 -0.393208 -0.518931 0.854816 1065.15 447.692)" fill="#F4EAF0"/>
<rect width="225.938" height="2.84224" transform="matrix(-0.91945 -0.393208 -0.518931 0.854816 1085.11 435.675)" fill="#F4EAF0"/>
<path d="M764.916 410.914C760.119 409.211 762.333 413.981 764.916 410.914L952.583 481.324L1106.72 387.515L1097.67 384.85C1092.06 380.246 1091.58 372.583 1096.2 369.175C1100.81 365.767 1132.36 353.33 1132.36 353.33C1137.24 351.836 1140.47 351.588 1147.48 352.648C1147.48 352.648 1151.05 353.611 1156.12 355.012L1282.9 271.58L1198.22 257.234C1187.72 255.135 1183.74 255.146 1178.85 256.553L764.916 410.914Z" fill="url(#paint7_linear_74_104)" fill-opacity="0.4"/>
<path d="M1047.35 516.662C1059.74 518.375 1060.47 519.037 1068.15 516.662L1348.77 390.813C1348.77 390.813 1506.69 323.342 1510.01 321.639C1513.33 319.935 1515.22 313.711 1510.01 310.053L1399 275.5L1282.9 271.58L1156.12 355.012C1166.41 357.86 1182.88 362.519 1188.07 364.575C1195.82 367.642 1194.9 376.672 1191.02 379.057L1155.05 394.903C1148.11 397.179 1143.95 397.58 1135.86 396.095L1106.72 387.515L952.583 481.324L1047.35 516.662Z" fill="url(#paint8_linear_74_104)" fill-opacity="0.4"/>
<path d="M1132.36 353.33C1132.36 353.33 1100.81 365.767 1096.2 369.175C1091.58 372.583 1092.06 380.246 1097.67 384.85L1106.72 387.515L1135.86 396.095C1143.95 397.58 1148.11 397.179 1155.05 394.903L1191.02 379.057C1194.9 376.672 1195.82 367.642 1188.07 364.575C1182.88 362.519 1166.41 357.86 1156.12 355.012C1151.05 353.611 1147.48 352.648 1147.48 352.648C1140.47 351.588 1137.24 351.836 1132.36 353.33Z" fill="url(#paint9_linear_74_104)" fill-opacity="0.4"/>
<g filter="url(#filter0_b_74_104)">
<path d="M740.766 406.162C738.183 409.229 745.518 400.433 750.315 402.137L932.153 460.601L1094.26 357.712L1085.21 355.047C1079.61 350.443 1079.12 342.78 1083.74 339.372C1088.35 335.965 1119.9 323.527 1119.9 323.527C1124.78 322.033 1128.01 321.785 1135.03 322.845C1135.03 322.845 1138.59 323.808 1143.66 325.209L1270.44 241.777L1185.76 227.432C1175.27 225.332 1171.28 225.343 1166.39 226.75L740.766 406.162Z" fill="url(#paint10_linear_74_104)" fill-opacity="0.6"/>
<path d="M1029.29 492.5C1041.68 494.213 1048.02 489.235 1055.69 486.859L1336.31 361.011C1336.31 361.011 1494.23 293.54 1497.55 291.836C1500.87 290.132 1502.76 283.908 1497.55 280.25L1270.44 241.777L1143.66 325.209C1153.95 328.057 1170.42 332.716 1175.61 334.772C1183.36 337.839 1182.44 346.869 1178.57 349.254L1142.59 365.1C1135.65 367.377 1131.49 367.777 1123.4 366.293L1094.26 357.712L932.153 460.601L1029.29 492.5Z" fill="url(#paint11_linear_74_104)" fill-opacity="0.6"/>
<path d="M1119.9 323.527C1119.9 323.527 1088.35 335.965 1083.74 339.372C1079.12 342.78 1079.61 350.443 1085.21 355.047L1094.26 357.712L1123.4 366.293C1131.49 367.777 1135.65 367.377 1142.59 365.1L1178.57 349.254C1182.44 346.869 1183.36 337.839 1175.61 334.772C1170.42 332.716 1153.95 328.057 1143.66 325.209C1138.59 323.808 1135.03 322.845 1135.03 322.845C1128.01 321.785 1124.78 322.033 1119.9 323.527Z" fill="url(#paint12_linear_74_104)" fill-opacity="0.6"/>
</g>
<path d="M698.988 390.945C696.263 394.298 697.431 400.258 702.493 402.121L921.503 440.582L1072 337.978L1062.45 335.064C1056.53 330.031 1056.02 321.653 1060.89 317.928C1065.76 314.202 1099.05 300.605 1099.05 300.605C1104.2 298.972 1107.61 298.701 1115.01 299.859C1115.01 299.859 1118.78 300.912 1124.12 302.443L1257.9 211.232L1168.55 195.549C1157.47 193.254 1153.27 193.265 1148.11 194.804L698.988 390.945Z" fill="#8D7ECA"/>
<path d="M1031.3 459.864C1044.38 461.736 1049.48 460.784 1057.58 458.188L1327.4 341.584C1327.4 341.584 1494.04 267.821 1497.55 265.959C1501.05 264.096 1503.05 257.291 1497.55 253.292L1257.9 211.232L1124.12 302.443C1134.98 305.557 1152.36 310.651 1157.84 312.898C1166.02 316.251 1165.04 326.123 1160.95 328.731L1122.99 346.054C1115.67 348.543 1111.28 348.981 1102.75 347.358L1072 337.978L921.503 440.582L1031.3 459.864Z" fill="#8D7ECA"/>
<path d="M1099.05 300.605C1099.05 300.605 1065.76 314.202 1060.89 317.928C1056.02 321.653 1056.53 330.031 1062.45 335.064L1072 337.978L1102.75 347.358C1111.28 348.981 1115.67 348.543 1122.99 346.054L1160.95 328.731C1165.04 326.123 1166.02 316.251 1157.84 312.898C1152.36 310.651 1134.98 305.557 1124.12 302.443C1118.78 300.912 1115.01 299.859 1115.01 299.859C1107.61 298.701 1104.2 298.972 1099.05 300.605Z" fill="#8D7ECA"/>
<path d="M697.82 387.219C695.095 390.572 696.263 396.533 701.324 398.395L920.335 436.857L1070.83 334.252L1061.28 331.339C1055.36 326.305 1054.86 317.927 1059.72 314.202C1064.59 310.477 1097.88 296.879 1097.88 296.879C1103.04 295.246 1106.44 294.975 1113.84 296.134C1113.84 296.134 1117.61 297.187 1122.95 298.718L1256.73 207.506L1167.38 191.824C1156.3 189.528 1152.1 189.54 1146.94 191.078L697.82 387.219Z" fill="url(#paint13_linear_74_104)"/>
<path d="M1030.13 456.138C1043.21 458.011 1048.31 457.059 1056.41 454.462L1326.23 337.858C1326.23 337.858 1492.88 264.096 1496.38 262.233C1499.88 260.37 1501.88 253.566 1496.38 249.567L1256.73 207.506L1122.95 298.718C1133.81 301.832 1151.19 306.925 1156.67 309.173C1164.85 312.526 1163.87 322.398 1159.79 325.006L1121.82 342.328C1114.5 344.817 1110.12 345.255 1101.58 343.632L1070.83 334.252L920.335 436.857L1030.13 456.138Z" fill="url(#paint14_linear_74_104)"/>
<path d="M1097.88 296.879C1097.88 296.879 1064.59 310.477 1059.72 314.202C1054.86 317.927 1055.36 326.305 1061.28 331.339L1070.83 334.252L1101.58 343.632C1110.12 345.255 1114.5 344.817 1121.82 342.328L1159.79 325.006C1163.87 322.398 1164.85 312.526 1156.67 309.173C1151.19 306.925 1133.81 301.832 1122.95 298.718C1117.61 297.187 1113.84 296.134 1113.84 296.134C1106.44 294.975 1103.04 295.246 1097.88 296.879Z" fill="white"/>
<defs>
<filter id="filter0_b_74_104" x="738.23" y="223.764" width="764.561" height="271.088" filterUnits="userSpaceOnUse" color-interpolation-filters="sRGB">
<feFlood flood-opacity="0" result="BackgroundImageFix"/>
<feGaussianBlur in="BackgroundImage" stdDeviation="1"/>
<feComposite in2="SourceAlpha" operator="in" result="effect1_backgroundBlur_74_104"/>
<feBlend mode="normal" in="SourceGraphic" in2="effect1_backgroundBlur_74_104" result="shape"/>
</filter>
<linearGradient id="paint0_linear_74_104" x1="786.524" y1="465.677" x2="1425.04" y2="318.19" gradientUnits="userSpaceOnUse">
<stop stop-color="#9989E7"/>
<stop offset="1" stop-color="#9989E7" stop-opacity="0"/>
</linearGradient>
<linearGradient id="paint1_linear_74_104" x1="698.13" y1="633" x2="1515.19" y2="593.969" gradientUnits="userSpaceOnUse">
<stop stop-color="#C2D6F7"/>
<stop offset="1" stop-color="#C2D6F7" stop-opacity="0.5"/>
</linearGradient>
<linearGradient id="paint2_linear_74_104" x1="710.99" y1="536" x2="1515.07" y2="512.403" gradientUnits="userSpaceOnUse">
<stop stop-color="#92B3E6"/>
<stop offset="1" stop-color="#92B3E6" stop-opacity="0.25"/>
</linearGradient>
<linearGradient id="paint3_linear_74_104" x1="1515" y1="519" x2="710.884" y2="548.043" gradientUnits="userSpaceOnUse">
<stop stop-color="#92B3E6"/>
<stop offset="1" stop-color="#92B3E6" stop-opacity="0.61"/>
</linearGradient>
<linearGradient id="paint4_linear_74_104" x1="682.794" y1="472.5" x2="1536.22" y2="433.163" gradientUnits="userSpaceOnUse">
<stop stop-color="#736FE8"/>
<stop offset="1" stop-color="#736FE8" stop-opacity="0.58"/>
</linearGradient>
<linearGradient id="paint5_linear_74_104" x1="675.579" y1="465" x2="1592.04" y2="421.035" gradientUnits="userSpaceOnUse">
<stop stop-color="#736FE8" stop-opacity="0.48"/>
<stop offset="1" stop-color="#736FE8"/>
</linearGradient>
<linearGradient id="paint6_linear_74_104" x1="786.524" y1="470.891" x2="1425.04" y2="323.405" gradientUnits="userSpaceOnUse">
<stop stop-color="#9989E7"/>
<stop offset="1" stop-color="#9989E7" stop-opacity="0"/>
</linearGradient>
<linearGradient id="paint7_linear_74_104" x1="1513.25" y1="301.761" x2="908.828" y2="506.48" gradientUnits="userSpaceOnUse">
<stop stop-color="#DD0ECC"/>
<stop offset="1" stop-color="#CFE2E9"/>
</linearGradient>
<linearGradient id="paint8_linear_74_104" x1="1513.25" y1="301.761" x2="908.828" y2="506.48" gradientUnits="userSpaceOnUse">
<stop stop-color="#DD0ECC"/>
<stop offset="1" stop-color="#CFE2E9"/>
</linearGradient>
<linearGradient id="paint9_linear_74_104" x1="1513.25" y1="301.761" x2="908.828" y2="506.48" gradientUnits="userSpaceOnUse">
<stop stop-color="#DD0ECC"/>
<stop offset="1" stop-color="#CFE2E9"/>
</linearGradient>
<linearGradient id="paint10_linear_74_104" x1="1500.79" y1="271.958" x2="918.497" y2="445.583" gradientUnits="userSpaceOnUse">
<stop stop-color="#FFBF00"/>
<stop offset="1" stop-color="#58A9E4"/>
</linearGradient>
<linearGradient id="paint11_linear_74_104" x1="1500.79" y1="271.958" x2="918.497" y2="445.583" gradientUnits="userSpaceOnUse">
<stop stop-color="#FFBF00"/>
<stop offset="1" stop-color="#58A9E4"/>
</linearGradient>
<linearGradient id="paint12_linear_74_104" x1="1500.79" y1="271.958" x2="918.497" y2="445.583" gradientUnits="userSpaceOnUse">
<stop stop-color="#FFBF00"/>
<stop offset="1" stop-color="#58A9E4"/>
</linearGradient>
<linearGradient id="paint13_linear_74_104" x1="681.4" y1="388.562" x2="1257.16" y2="199.685" gradientUnits="userSpaceOnUse">
<stop stop-color="#EDDEFA"/>
<stop offset="1" stop-color="#F0DBED"/>
</linearGradient>
<linearGradient id="paint14_linear_74_104" x1="1492.81" y1="227.44" x2="891.088" y2="455.318" gradientUnits="userSpaceOnUse">
<stop stop-color="#F6E2ED"/>
<stop offset="1" stop-color="#FEFCFD"/>
</linearGradient>
</defs>
</svg>
