<svg width="1451" height="770" viewBox="0 0 1451 770" fill="none" xmlns="http://www.w3.org/2000/svg">
<path d="M1451 770V3.05176e-05C1441.5 -3.05176e-05 1442.21 9.48906e-05 1431.32 9.48906e-05L1210.15 0C938.82 68.695 939.094 153.832 939.853 389.209C939.895 402.088 939.938 415.417 939.938 429.218C939.938 671.56 793.706 722.164 686.315 759.326L686.311 759.328C686.308 759.329 686.306 759.329 686.304 759.33C686.302 759.331 686.299 759.332 686.297 759.332C675.811 762.961 665.696 766.462 656.123 770H1431.29C1442.18 770 1439 770 1451 770Z" fill="#004D8D"/>
<path d="M1210.15 0H1135.26C1115.78 5.33173 1097.99 11.2671 1081.75 17.7587C1074.87 20.5046 1068.28 23.3501 1061.95 26.2914C912.863 95.5562 910.571 218.013 908.163 346.714C905.116 509.474 904.643 682.221 604.091 770H656.123C665.696 766.462 675.811 762.961 686.297 759.332L686.304 759.33L686.311 759.328L686.315 759.326C793.706 722.164 939.938 671.56 939.938 429.218C939.938 415.417 939.895 402.088 939.853 389.209C939.094 153.832 938.82 68.695 1210.15 0Z" fill="#92B3E6"/>
<path fill-rule="evenodd" clip-rule="evenodd" d="M5.64013e-05 770V17.7583C5.64013e-05 7.95065 -7.39098e-05 11 0.000130669 0H1135.26C1115.78 5.33173 1097.99 11.2671 1081.75 17.7587C878.974 93.8841 879.772 231.966 880.586 372.669C881.49 529.012 882.413 688.591 604.091 770H19.7094C8.82423 770 8.50006 770 5.64013e-05 770Z" fill="white"/>
<path d="M604.091 770C904.643 682.221 905.116 509.474 908.163 346.714C910.571 218.013 912.863 95.5562 1061.95 26.2914C1068.28 23.3501 1074.87 20.5046 1081.75 17.7587C878.974 93.8841 879.772 231.966 880.586 372.669C881.49 529.012 882.413 688.591 604.091 770Z" fill="#C2D6F7"/>
<path d="M625.935 360.629C622.169 355.08 622.168 337.944 622.168 334.218C622.169 330.493 1071.55 153.312 1071.55 153.312C1076.71 151.774 1080.91 151.762 1091.99 154.057L1177.38 191.35L1439.03 289.514C1440.2 295.288 1440.2 313.253 1432.99 317.081C1425.79 320.91 1268.69 388.609 1268.69 388.609L993.415 509.124C985.313 511.721 977.873 510.997 964.798 509.124L848.576 460.694L625.935 360.629Z" fill="#B7B6E6"/>
<path d="M623.935 342.003C618.874 340.141 617.706 334.18 620.431 330.827L1069.55 134.686C1074.71 133.148 1078.91 133.136 1089.99 135.431L1175.38 172.724L1434.69 284.672C1440.19 288.671 1438.2 294.627 1430.99 298.456C1423.79 302.284 1266.69 369.983 1266.69 369.983L991.415 490.498C983.312 493.095 975.873 492.371 962.798 490.498L846.576 442.069L623.935 342.003Z" fill="#F4F4F4"/>
<path d="M639.89 339.732C635.691 338.282 634.722 333.644 636.983 331.035L1009.63 178.406C1013.91 177.209 1017.4 177.2 1026.59 178.986L1097.44 208.006L1312.6 295.119C1317.16 298.23 1315.51 302.865 1309.53 305.845C1303.56 308.824 1173.2 361.504 1173.2 361.504L944.8 455.284C938.077 457.305 931.904 456.741 921.055 455.284L824.623 417.598L639.89 339.732Z" fill="url(#paint0_linear_74_104)"/>
<path d="M1045.11 353.67C1043.8 353.188 1043.5 351.646 1044.2 350.779L1159.74 300.038C1161.06 299.64 1162.15 299.637 1164.99 300.231L1186.96 309.878L1253.67 338.839C1255.08 339.873 1254.57 341.414 1252.71 342.404C1250.86 343.395 1210.45 360.908 1210.45 360.908L1139.64 392.085C1137.55 392.756 1135.64 392.569 1132.28 392.085L1102.38 379.556L1045.11 353.67Z" fill="#B0B8EC"/>
<path d="M1266.26 613.994L979.364 740.098L866.052 686.08L637.391 575.436C637.391 571.711 1078.46 378.698 1078.46 378.698C1083.38 377.159 1087.38 377.147 1097.93 379.443L1179.28 416.736L1436.69 537.251C1429.83 541.08 1266.26 613.994 1266.26 613.994Z" fill="url(#paint1_linear_74_104)" fill-opacity="0.2"/>
<path d="M1266.26 619.21L979.364 745.313L866.052 691.296L637.391 580.652C637.391 576.927 1078.46 383.913 1078.46 383.913C1083.38 382.375 1087.38 382.363 1097.93 384.659L1179.28 421.951L1436.69 542.467C1429.83 546.296 1266.26 619.21 1266.26 619.21Z" fill="#C2D6F7" fill-opacity="0.05"/>
<path d="M1266.26 531.291L979.364 657.394L866.052 603.377L637.391 492.733C637.391 489.008 1078.46 295.994 1078.46 295.994C1083.38 294.456 1087.38 294.444 1097.93 296.74L1179.28 334.032L1436.69 454.548C1429.83 458.377 1266.26 531.291 1266.26 531.291Z" fill="url(#paint2_linear_74_104)" fill-opacity="0.4"/>
<path d="M1266.26 536.507L979.364 662.61L866.052 608.592L637.391 497.949C637.391 494.224 1078.46 301.21 1078.46 301.21C1083.38 299.672 1087.38 299.66 1097.93 301.955L1179.28 339.248L1436.69 459.764C1429.83 463.593 1266.26 536.507 1266.26 536.507Z" fill="url(#paint3_linear_74_104)" fill-opacity="0.1"/>
<path d="M1264.55 455.293L974.837 581.397L860.411 527.379L629.502 416.736C629.502 413.01 1074.91 219.997 1074.91 219.997C1079.87 218.458 1083.92 218.447 1094.57 220.742L1176.72 258.035L1436.66 378.551C1429.73 382.379 1264.55 455.293 1264.55 455.293Z" fill="url(#paint4_linear_74_104)" fill-opacity="0.6"/>
<path d="M1264.55 460.509L974.837 586.613L860.411 532.595L629.502 421.951C629.502 418.226 1074.91 225.213 1074.91 225.213C1079.87 223.674 1083.92 223.662 1094.57 225.958L1176.72 263.251L1436.66 383.766C1429.73 387.595 1264.55 460.509 1264.55 460.509Z" fill="url(#paint5_linear_74_104)" fill-opacity="0.2"/>
<path d="M624.923 364.31C621.156 358.761 622.168 343.159 622.168 339.434C622.168 335.708 1071.55 158.528 1071.55 158.528C1076.71 156.989 1080.91 156.977 1091.99 159.273L1177.38 196.566L1439.03 294.729C1440.2 300.503 1440.2 318.468 1432.99 322.297C1425.79 326.126 1268.69 393.824 1268.69 393.824L993.415 514.34C985.312 516.936 977.872 516.212 964.798 514.34L848.576 465.91L624.923 364.31Z" fill="#9F9F9F"/>
<path d="M625.935 347.218C620.874 345.355 619.706 339.394 622.431 336.041L1071.55 139.901C1076.71 138.362 1080.91 138.35 1091.99 140.646L1177.38 177.939L1436.69 289.886C1442.19 293.885 1440.2 299.841 1432.99 303.67C1425.79 307.499 1268.69 375.197 1268.69 375.197L993.415 495.713C985.312 498.31 977.873 497.585 964.798 495.713L848.576 447.283L625.935 347.218Z" fill="#F4F4F4"/>
<path d="M639.89 344.946C635.691 343.497 634.722 338.858 636.983 336.249L1009.63 183.62C1013.91 182.423 1017.4 182.414 1026.59 184.2L1097.44 213.22L1312.6 300.333C1317.16 303.445 1315.51 308.079 1309.53 311.059C1303.56 314.038 1173.2 366.718 1173.2 366.718L944.8 460.499C938.077 462.52 931.904 461.956 921.055 460.499L824.623 422.813L639.89 344.946Z" fill="url(#paint6_linear_74_104)"/>
<path d="M1045.11 358.884C1043.8 358.402 1043.5 356.86 1044.2 355.993L1159.74 305.253C1161.06 304.855 1162.15 304.852 1164.99 305.445L1186.96 315.093L1253.67 344.053C1255.08 345.087 1254.57 346.628 1252.71 347.619C1250.86 348.609 1210.45 366.122 1210.45 366.122L1139.64 397.299C1137.55 397.971 1135.64 397.783 1132.28 397.299L1102.38 384.77L1045.11 358.884Z" fill="#9F9F9F"/>
<path d="M658.007 374.739V365.982L672.389 372.863V381.62L658.007 374.739Z" fill="#565B75"/>
<path d="M677.221 383.7V374.943L691.603 381.823V390.58L677.221 383.7Z" fill="#565B75"/>
<path d="M695.711 392.457V383.7L710.093 390.581V399.338L695.711 392.457Z" fill="#565B75"/>
<path d="M722.651 351.765C720.495 351.007 731.428 353.131 732.589 351.765L923.926 271.885C926.124 271.258 927.916 271.254 932.634 272.188L969.015 287.376L1079.49 332.968C1081.83 334.597 1080.98 337.022 1077.91 338.582C1074.84 340.141 1007.91 367.712 1007.91 367.712L890.639 416.793C887.187 417.851 884.017 417.556 878.447 416.793L830.039 395.994L722.651 351.765Z" fill="#373737"/>
<rect width="226.914" height="2.82711" transform="matrix(0.931218 -0.364462 -0.485657 -0.874149 856.515 411.609)" fill="#B5A7EA"/>
<rect width="12.3346" height="2.82711" rx="1.41355" transform="matrix(0.931218 -0.364462 -0.485657 -0.874149 899.036 380.747)" fill="#B5A7EA"/>
<rect width="12.3346" height="2.82711" rx="1.41355" transform="matrix(0.931218 -0.364462 -0.485657 -0.874149 856.515 399.683)" fill="#B5A7EA"/>
<rect width="12.3346" height="2.82711" rx="1.41355" transform="matrix(0.931218 -0.364462 -0.485657 -0.874149 831.783 390.579)" fill="#B5A7EA"/>
<rect width="12.3346" height="2.82711" rx="1.41355" transform="matrix(0.931218 -0.364462 -0.485657 -0.874149 808.786 380.747)" fill="#B5A7EA"/>
<rect width="12.3346" height="2.82711" rx="1.41355" transform="matrix(0.931218 -0.364462 -0.485657 -0.874149 785.79 369.821)" fill="#B5A7EA"/>
<rect width="12.3346" height="2.82711" rx="1.41355" transform="matrix(0.931218 -0.364462 -0.485657 -0.874149 759.323 359.988)" fill="#B5A7EA"/>
<rect width="226.914" height="2.82711" transform="matrix(0.931218 -0.364462 -0.485657 -0.874149 825.708 401.413)" fill="#B5A7EA"/>
<rect width="226.914" height="2.82711" transform="matrix(0.931218 -0.364462 -0.485657 -0.874149 802.278 391.216)" fill="#B5A7EA"/>
<rect width="226.914" height="2.82711" transform="matrix(0.931218 -0.364462 -0.485657 -0.874149 778.847 383.568)" fill="#B5A7EA"/>
<rect width="226.914" height="2.82711" transform="matrix(0.931218 -0.364462 -0.485657 -0.874149 759.323 369)" fill="#B5A7EA"/>
<rect width="226.914" height="2.82711" transform="matrix(0.931218 -0.364462 -0.485657 -0.874149 738.495 359.896)" fill="#B5A7EA"/>
<rect width="225.938" height="2.84224" transform="matrix(-0.91945 -0.393208 -0.518931 0.854816 930.278 412.728)" fill="#B5A7EA"/>
<rect width="225.938" height="2.84224" transform="matrix(-0.91945 -0.393208 -0.518931 0.854816 959.783 402.167)" fill="#B5A7EA"/>
<rect width="225.938" height="2.84224" transform="matrix(-0.91945 -0.393208 -0.518931 0.854816 990.155 388.692)" fill="#F4EAF0"/>
<rect width="225.938" height="2.84224" transform="matrix(-0.91945 -0.393208 -0.518931 0.854816 1010.11 376.675)" fill="#F4EAF0"/>
<path d="M689.916 351.914C685.119 350.211 687.333 354.981 689.916 351.914L877.583 422.324L1031.72 328.515L1022.67 325.85C1017.07 321.246 1016.58 313.583 1021.2 310.175C1025.81 306.767 1057.36 294.33 1057.36 294.33C1062.24 292.836 1065.47 292.588 1072.49 293.648C1072.49 293.648 1076.05 294.611 1081.12 296.012L1207.9 212.58L1123.22 198.234C1112.72 196.135 1108.74 196.146 1103.85 197.553L689.916 351.914Z" fill="url(#paint7_linear_74_104)" fill-opacity="0.4"/>
<path d="M972.347 457.662C984.738 459.375 985.475 460.037 993.153 457.662L1273.77 331.813C1273.77 331.813 1431.69 264.342 1435.01 262.639C1438.33 260.935 1440.22 254.711 1435.01 251.053L1324 216.5L1207.9 212.58L1081.12 296.012C1091.41 298.86 1107.88 303.519 1113.07 305.575C1120.82 308.642 1119.9 317.672 1116.03 320.057L1080.05 335.903C1073.11 338.179 1068.95 338.58 1060.86 337.095L1031.72 328.515L877.583 422.324L972.347 457.662Z" fill="url(#paint8_linear_74_104)" fill-opacity="0.4"/>
<path d="M1057.36 294.33C1057.36 294.33 1025.81 306.767 1021.2 310.175C1016.58 313.583 1017.07 321.246 1022.67 325.85L1031.72 328.515L1060.86 337.095C1068.95 338.58 1073.11 338.179 1080.05 335.903L1116.03 320.057C1119.9 317.672 1120.82 308.642 1113.07 305.575C1107.88 303.519 1091.41 298.86 1081.12 296.012C1076.05 294.611 1072.49 293.648 1072.49 293.648C1065.47 292.588 1062.24 292.836 1057.36 294.33Z" fill="url(#paint9_linear_74_104)" fill-opacity="0.4"/>
<g filter="url(#filter0_b_74_104)">
<path d="M665.766 347.162C663.183 350.229 670.518 341.433 675.315 343.137L857.153 401.601L1019.26 298.712L1010.21 296.047C1004.61 291.443 1004.12 283.78 1008.74 280.372C1013.35 276.965 1044.9 264.527 1044.9 264.527C1049.78 263.033 1053.01 262.785 1060.03 263.845C1060.03 263.845 1063.59 264.808 1068.66 266.209L1195.44 182.777L1110.76 168.432C1100.27 166.332 1096.28 166.343 1091.39 167.75L665.766 347.162Z" fill="url(#paint10_linear_74_104)" fill-opacity="0.6"/>
<path d="M954.285 433.5C966.676 435.213 973.016 430.235 980.694 427.859L1261.31 302.011C1261.31 302.011 1419.23 234.54 1422.55 232.836C1425.87 231.132 1427.76 224.908 1422.55 221.25L1195.44 182.777L1068.66 266.209C1078.95 269.057 1095.42 273.716 1100.61 275.772C1108.36 278.839 1107.44 287.869 1103.57 290.254L1067.59 306.1C1060.65 308.377 1056.49 308.777 1048.4 307.293L1019.26 298.712L857.153 401.601L954.285 433.5Z" fill="url(#paint11_linear_74_104)" fill-opacity="0.6"/>
<path d="M1044.9 264.527C1044.9 264.527 1013.35 276.965 1008.74 280.372C1004.12 283.78 1004.61 291.443 1010.21 296.047L1019.26 298.712L1048.4 307.293C1056.49 308.777 1060.65 308.377 1067.59 306.1L1103.57 290.254C1107.44 287.869 1108.36 278.839 1100.61 275.772C1095.42 273.716 1078.95 269.057 1068.66 266.209C1063.59 264.808 1060.03 263.845 1060.03 263.845C1053.01 262.785 1049.78 263.033 1044.9 264.527Z" fill="url(#paint12_linear_74_104)" fill-opacity="0.6"/>
</g>
<path d="M623.989 331.945C621.264 335.298 622.432 341.258 627.493 343.121L846.504 381.582L996.999 278.978L987.449 276.064C981.532 271.031 981.025 262.653 985.891 258.928C990.758 255.202 1024.05 241.605 1024.05 241.605C1029.2 239.972 1032.61 239.701 1040.01 240.859C1040.01 240.859 1043.78 241.912 1049.12 243.443L1182.9 152.232L1093.55 136.549C1082.47 134.254 1078.27 134.265 1073.11 135.804L623.989 331.945Z" fill="#9F9F9F"/>
<path d="M956.301 400.864C969.376 402.736 974.479 401.784 982.582 399.188L1252.4 282.584C1252.4 282.584 1419.05 208.821 1422.55 206.959C1426.05 205.096 1428.05 198.291 1422.55 194.292L1182.9 152.232L1049.12 243.443C1059.98 246.557 1077.36 251.651 1082.84 253.898C1091.02 257.251 1090.04 267.123 1085.95 269.731L1047.99 287.054C1040.67 289.543 1036.29 289.981 1027.75 288.358L996.999 278.978L846.504 381.582L956.301 400.864Z" fill="#9F9F9F"/>
<path d="M1024.05 241.605C1024.05 241.605 990.758 255.202 985.891 258.928C981.025 262.653 981.532 271.031 987.449 276.064L996.999 278.978L1027.75 288.358C1036.29 289.981 1040.67 289.543 1047.99 287.054L1085.95 269.731C1090.04 267.123 1091.02 257.251 1082.84 253.898C1077.36 251.651 1059.98 246.557 1049.12 243.443C1043.78 241.912 1040.01 240.859 1040.01 240.859C1032.61 239.701 1029.2 239.972 1024.05 241.605Z" fill="#9F9F9F"/>
<path d="M622.82 328.219C620.095 331.572 621.263 337.533 626.325 339.395L845.335 377.857L995.831 275.252L986.281 272.339C980.364 267.305 979.856 258.927 984.723 255.202C989.59 251.477 1022.88 237.879 1022.88 237.879C1028.04 236.246 1031.44 235.975 1038.84 237.134C1038.84 237.134 1042.61 238.187 1047.95 239.718L1181.74 148.506L1092.38 132.824C1081.3 130.528 1077.1 130.54 1071.94 132.078L622.82 328.219Z" fill="url(#paint13_linear_74_104)"/>
<path d="M955.132 397.138C968.207 399.011 973.311 398.059 981.414 395.462L1251.23 278.858C1251.23 278.858 1417.88 205.096 1421.38 203.233C1424.89 201.37 1426.88 194.566 1421.38 190.567L1181.74 148.506L1047.95 239.718C1058.81 242.832 1076.19 247.925 1081.67 250.173C1089.85 253.526 1088.87 263.398 1084.79 266.006L1046.82 283.328C1039.5 285.817 1035.12 286.255 1026.58 284.632L995.831 275.252L845.335 377.857L955.132 397.138Z" fill="url(#paint14_linear_74_104)"/>
<path d="M1022.88 237.879C1022.88 237.879 989.59 251.477 984.723 255.202C979.856 258.927 980.364 267.305 986.281 272.339L995.831 275.252L1026.58 284.632C1035.12 286.255 1039.5 285.817 1046.82 283.328L1084.79 266.006C1088.87 263.398 1089.85 253.526 1081.67 250.173C1076.19 247.925 1058.81 242.832 1047.95 239.718C1042.61 238.187 1038.84 237.134 1038.84 237.134C1031.44 235.975 1028.04 236.246 1022.88 237.879Z" fill="white"/>
<defs>
<filter id="filter0_b_74_104" x="663.23" y="164.764" width="764.561" height="271.088" filterUnits="userSpaceOnUse" color-interpolation-filters="sRGB">
<feFlood flood-opacity="0" result="BackgroundImageFix"/>
<feGaussianBlur in="BackgroundImage" stdDeviation="1"/>
<feComposite in2="SourceAlpha" operator="in" result="effect1_backgroundBlur_74_104"/>
<feBlend mode="normal" in="SourceGraphic" in2="effect1_backgroundBlur_74_104" result="shape"/>
</filter>
<linearGradient id="paint0_linear_74_104" x1="711.525" y1="406.677" x2="1350.04" y2="259.19" gradientUnits="userSpaceOnUse">
<stop stop-color="#9989E7"/>
<stop offset="1" stop-color="#9989E7" stop-opacity="0"/>
</linearGradient>
<linearGradient id="paint1_linear_74_104" x1="623.13" y1="574" x2="1440.19" y2="534.969" gradientUnits="userSpaceOnUse">
<stop stop-color="#C2D6F7"/>
<stop offset="1" stop-color="#C2D6F7" stop-opacity="0.5"/>
</linearGradient>
<linearGradient id="paint2_linear_74_104" x1="635.99" y1="477" x2="1440.07" y2="453.403" gradientUnits="userSpaceOnUse">
<stop stop-color="#92B3E6"/>
<stop offset="1" stop-color="#92B3E6" stop-opacity="0.25"/>
</linearGradient>
<linearGradient id="paint3_linear_74_104" x1="1440" y1="460" x2="635.884" y2="489.043" gradientUnits="userSpaceOnUse">
<stop stop-color="#92B3E6"/>
<stop offset="1" stop-color="#92B3E6" stop-opacity="0.61"/>
</linearGradient>
<linearGradient id="paint4_linear_74_104" x1="607.795" y1="413.5" x2="1461.22" y2="374.163" gradientUnits="userSpaceOnUse">
<stop stop-color="#004D8D"/>
<stop offset="1" stop-color="#004D8D" stop-opacity="0.58"/>
</linearGradient>
<linearGradient id="paint5_linear_74_104" x1="600.58" y1="406" x2="1517.04" y2="362.035" gradientUnits="userSpaceOnUse">
<stop stop-color="#004D8D" stop-opacity="0.48"/>
<stop offset="0.471875" stop-color="#004D8D" stop-opacity="0.725375"/>
<stop offset="1" stop-color="#736FE8"/>
</linearGradient>
<linearGradient id="paint6_linear_74_104" x1="711.525" y1="411.891" x2="1350.04" y2="264.405" gradientUnits="userSpaceOnUse">
<stop stop-color="#6C9CC5"/>
<stop offset="1" stop-color="#004D8D" stop-opacity="0"/>
</linearGradient>
<linearGradient id="paint7_linear_74_104" x1="1438.25" y1="242.761" x2="833.828" y2="447.48" gradientUnits="userSpaceOnUse">
<stop stop-color="#92B3E6"/>
<stop offset="1" stop-color="#CFE2E9"/>
</linearGradient>
<linearGradient id="paint8_linear_74_104" x1="1438.25" y1="242.761" x2="833.828" y2="447.48" gradientUnits="userSpaceOnUse">
<stop stop-color="#92B3E6"/>
<stop offset="1" stop-color="#CFE2E9"/>
</linearGradient>
<linearGradient id="paint9_linear_74_104" x1="1438.25" y1="242.761" x2="833.828" y2="447.48" gradientUnits="userSpaceOnUse">
<stop stop-color="#92B3E6"/>
<stop offset="1" stop-color="#CFE2E9"/>
</linearGradient>
<linearGradient id="paint10_linear_74_104" x1="1425.79" y1="212.958" x2="843.498" y2="386.583" gradientUnits="userSpaceOnUse">
<stop stop-color="#C3CCD1"/>
<stop offset="1" stop-color="#D0D0D0"/>
</linearGradient>
<linearGradient id="paint11_linear_74_104" x1="1425.79" y1="212.958" x2="843.498" y2="386.583" gradientUnits="userSpaceOnUse">
<stop stop-color="#C3CCD1"/>
<stop offset="1" stop-color="#D0D0D0"/>
</linearGradient>
<linearGradient id="paint12_linear_74_104" x1="1425.79" y1="212.958" x2="843.498" y2="386.583" gradientUnits="userSpaceOnUse">
<stop stop-color="#C3CCD1"/>
<stop offset="1" stop-color="#D0D0D0"/>
</linearGradient>
<linearGradient id="paint13_linear_74_104" x1="606.4" y1="329.562" x2="1182.16" y2="140.685" gradientUnits="userSpaceOnUse">
<stop stop-color="#C8C8C8"/>
<stop offset="1" stop-color="#F5F5F5"/>
</linearGradient>
<linearGradient id="paint14_linear_74_104" x1="1417.81" y1="168.44" x2="816.088" y2="396.318" gradientUnits="userSpaceOnUse">
<stop stop-color="#FCFCFC"/>
<stop offset="1" stop-color="#F4F4F4"/>
</linearGradient>
</defs>
</svg>
