<svg width="1451" height="770" viewBox="0 0 1451 770" fill="none" xmlns="http://www.w3.org/2000/svg">
<path d="M1451 770V3.05176e-05C1441.5 -3.05176e-05 1442.21 9.48906e-05 1431.32 9.48906e-05L1210.15 0C938.82 68.695 939.094 153.832 939.853 389.209C939.895 402.088 939.938 415.417 939.938 429.218C939.938 671.56 793.706 722.164 686.315 759.326L686.311 759.328C686.308 759.329 686.306 759.329 686.304 759.33C686.302 759.331 686.299 759.332 686.297 759.332C675.811 762.961 665.696 766.462 656.123 770H1431.29C1442.18 770 1439 770 1451 770Z" fill="#004D8D"/>
<path d="M1210.15 0H1135.26C1115.78 5.33173 1097.99 11.2671 1081.75 17.7587C1074.87 20.5046 1068.28 23.3501 1061.95 26.2914C912.863 95.5562 910.571 218.013 908.163 346.714C905.116 509.474 904.643 682.221 604.091 770H656.123C665.696 766.462 675.811 762.961 686.297 759.332L686.304 759.33L686.311 759.328L686.315 759.326C793.706 722.164 939.938 671.56 939.938 429.218C939.938 415.417 939.895 402.088 939.853 389.209C939.094 153.832 938.82 68.695 1210.15 0Z" fill="#92B3E6"/>
<path fill-rule="evenodd" clip-rule="evenodd" d="M5.64013e-05 770V17.7583C5.64013e-05 7.95065 -7.39098e-05 11 0.000130669 0H1135.26C1115.78 5.33173 1097.99 11.2671 1081.75 17.7587C878.974 93.8841 879.772 231.966 880.586 372.669C881.49 529.012 882.413 688.591 604.091 770H19.7094C8.82423 770 8.50006 770 5.64013e-05 770Z" fill="white"/>
<path d="M604.091 770C904.643 682.221 905.116 509.474 908.163 346.714C910.571 218.013 912.863 95.5562 1061.95 26.2914C1068.28 23.3501 1074.87 20.5046 1081.75 17.7587C878.974 93.8841 879.772 231.966 880.586 372.669C881.49 529.012 882.413 688.591 604.091 770Z" fill="#C2D6F7"/>
<path d="M829.591 377.105C826.85 373.067 826.85 360.596 826.85 357.885C826.85 355.174 1153.87 226.237 1153.87 226.237C1157.63 225.117 1160.69 225.109 1168.75 226.779L1230.89 253.918L1421.29 325.353C1422.14 329.555 1422.14 342.628 1416.9 345.414C1411.66 348.201 1297.33 397.466 1297.33 397.466L1097.01 485.167C1091.12 487.057 1085.7 486.53 1076.19 485.167L991.611 449.924L829.591 377.105Z" fill="#B7B6E6"/>
<path d="M829.591 364.278C825.908 362.923 825.058 358.585 827.041 356.145L1153.87 213.41C1157.63 212.291 1160.69 212.282 1168.75 213.953L1230.89 241.091L1419.59 322.557C1423.59 325.467 1422.14 329.801 1416.9 332.588C1411.66 335.374 1297.33 384.639 1297.33 384.639L1097.01 472.341C1091.12 474.23 1085.7 473.703 1076.19 472.341L991.611 437.097L829.591 364.278Z" fill="#F8F8F8"/>
<path d="M839.747 361.898C836.69 360.843 835.985 357.467 837.631 355.569L1108.81 244.498C1111.93 243.627 1114.47 243.62 1121.15 244.92L1172.72 266.038L1329.29 329.432C1332.61 331.696 1331.4 335.069 1327.06 337.237C1322.71 339.406 1227.85 377.742 1227.85 377.742L1061.63 445.987C1056.74 447.458 1052.25 447.048 1044.35 445.987L974.179 418.563L839.747 361.898Z" fill="url(#paint0_linear_74_104)"/>
<path d="M1134.63 372.041C1133.68 371.69 1133.46 370.568 1133.97 369.937L1218.05 333.012C1219.01 332.722 1219.8 332.72 1221.87 333.152L1237.86 340.173L1286.4 361.248C1287.43 362.001 1287.06 363.122 1285.71 363.843C1284.36 364.563 1254.95 377.308 1254.95 377.308L1203.42 399.996C1201.9 400.485 1200.51 400.348 1198.06 399.996L1176.31 390.879L1134.63 372.041Z" fill="#B0B8EC"/>
<path d="M1295.56 561.482L1086.79 653.25L1004.33 613.941L837.927 533.424C837.927 530.713 1158.9 390.254 1158.9 390.254C1162.48 389.134 1165.39 389.125 1173.07 390.796L1232.27 417.934L1419.59 505.636C1414.6 508.422 1295.56 561.482 1295.56 561.482Z" fill="url(#paint1_linear_74_104)" fill-opacity="0.2"/>
<path d="M1295.56 565.278L1086.79 657.046L1004.33 617.736L837.927 537.219C837.927 534.508 1158.9 394.049 1158.9 394.049C1162.48 392.929 1165.39 392.921 1173.07 394.591L1232.27 421.73L1419.59 509.431C1414.6 512.217 1295.56 565.278 1295.56 565.278Z" fill="#C2D6F7" fill-opacity="0.05"/>
<path d="M1295.56 501.298L1086.79 593.066L1004.33 553.757L837.927 473.239C837.927 470.528 1158.9 330.069 1158.9 330.069C1162.48 328.95 1165.39 328.941 1173.07 330.612L1232.27 357.75L1419.59 445.452C1414.6 448.238 1295.56 501.298 1295.56 501.298Z" fill="url(#paint2_linear_74_104)" fill-opacity="0.4"/>
<path d="M1295.56 505.094L1086.79 596.862L1004.33 557.552L837.927 477.035C837.927 474.324 1158.9 333.865 1158.9 333.865C1162.48 332.745 1165.39 332.737 1173.07 334.407L1232.27 361.546L1419.59 449.247C1414.6 452.033 1295.56 505.094 1295.56 505.094Z" fill="url(#paint3_linear_74_104)" fill-opacity="0.1"/>
<path d="M1294.32 445.993L1083.49 537.761L1000.22 498.451L832.187 417.934C832.187 415.223 1156.32 274.764 1156.32 274.764C1159.93 273.645 1162.87 273.636 1170.62 275.307L1230.41 302.445L1419.57 390.146C1414.52 392.933 1294.32 445.993 1294.32 445.993Z" fill="url(#paint4_linear_74_104)" fill-opacity="0.6"/>
<path d="M1294.32 449.789L1083.49 541.556L1000.22 502.247L832.187 421.73C832.187 419.019 1156.32 278.56 1156.32 278.56C1159.93 277.44 1162.87 277.431 1170.62 279.102L1230.41 306.241L1419.57 393.942C1414.52 396.728 1294.32 449.789 1294.32 449.789Z" fill="url(#paint5_linear_74_104)" fill-opacity="0.2"/>
<path d="M828.854 379.783C826.113 375.745 826.85 364.392 826.85 361.681C826.85 358.97 1153.87 230.032 1153.87 230.032C1157.63 228.913 1160.69 228.904 1168.75 230.575L1230.89 257.713L1421.29 329.148C1422.14 333.35 1422.14 346.424 1416.9 349.21C1411.66 351.996 1297.33 401.261 1297.33 401.261L1097.01 488.963C1091.12 490.852 1085.7 490.325 1076.19 488.963L991.611 453.719L828.854 379.783Z" fill="#9F9F9F"/>
<path d="M829.591 367.345C825.908 365.99 825.058 361.652 827.041 359.212L1153.87 216.477C1157.63 215.358 1160.69 215.349 1168.75 217.019L1230.89 244.158L1419.59 325.624C1423.59 328.534 1422.14 332.868 1416.9 335.655C1411.66 338.441 1297.33 387.706 1297.33 387.706L1097.01 475.407C1091.12 477.297 1085.7 476.77 1076.19 475.407L991.611 440.164L829.591 367.345Z" fill="#F7F7F7"/>
<path d="M839.747 365.692C836.69 364.637 835.985 361.262 837.631 359.363L1108.81 248.293C1111.93 247.422 1114.47 247.415 1121.15 248.715L1172.72 269.833L1329.29 333.226C1332.61 335.491 1331.4 338.864 1327.06 341.032C1322.71 343.2 1227.85 381.536 1227.85 381.536L1061.63 449.782C1056.74 451.252 1052.25 450.842 1044.35 449.782L974.179 422.357L839.747 365.692Z" fill="url(#paint6_linear_74_104)"/>
<path d="M1134.63 375.836C1133.68 375.485 1133.46 374.363 1133.97 373.732L1218.05 336.807C1219.01 336.517 1219.8 336.515 1221.87 336.947L1237.86 343.968L1286.4 365.043C1287.43 365.795 1287.06 366.917 1285.71 367.638C1284.36 368.358 1254.95 381.103 1254.95 381.103L1203.42 403.791C1201.9 404.28 1200.51 404.143 1198.06 403.791L1176.31 394.673L1134.63 375.836Z" fill="#9F9F9F"/>
<path d="M852.93 387.374V381.001L863.396 386.008V392.381L852.93 387.374Z" fill="#565B75"/>
<path d="M866.913 393.894V387.521L877.379 392.529V398.901L866.913 393.894Z" fill="#565B75"/>
<path d="M880.368 400.267V393.895L890.834 398.902V405.274L880.368 400.267Z" fill="#565B75"/>
<path d="M899.973 370.655C898.404 370.102 906.36 371.648 907.205 370.655L1046.44 312.524C1048.04 312.068 1049.35 312.065 1052.78 312.745L1079.26 323.798L1159.65 356.975C1161.35 358.161 1160.74 359.926 1158.5 361.061C1156.27 362.195 1107.56 382.259 1107.56 382.259L1022.22 417.976C1019.71 418.746 1017.4 418.531 1013.35 417.976L978.121 402.84L899.973 370.655Z" fill="#373737"/>
<rect width="165.129" height="2.05733" transform="matrix(0.931218 -0.364462 -0.485657 -0.874149 997.388 414.204)" fill="#7F8890"/>
<rect width="8.97613" height="2.05733" rx="1.02867" transform="matrix(0.931218 -0.364462 -0.485657 -0.874149 1028.33 391.745)" fill="#7F8890"/>
<rect width="8.97613" height="2.05733" rx="1.02867" transform="matrix(0.931218 -0.364462 -0.485657 -0.874149 997.388 405.525)" fill="#7F8890"/>
<rect width="8.97613" height="2.05733" rx="1.02867" transform="matrix(0.931218 -0.364462 -0.485657 -0.874149 979.39 398.9)" fill="#7F8890"/>
<rect width="8.97613" height="2.05733" rx="1.02867" transform="matrix(0.931218 -0.364462 -0.485657 -0.874149 962.655 391.745)" fill="#7F8890"/>
<rect width="8.97613" height="2.05733" rx="1.02867" transform="matrix(0.931218 -0.364462 -0.485657 -0.874149 945.92 383.793)" fill="#7F8890"/>
<rect width="8.97613" height="2.05733" rx="1.02867" transform="matrix(0.931218 -0.364462 -0.485657 -0.874149 926.659 376.638)" fill="#7F8890"/>
<rect width="165.129" height="2.05733" transform="matrix(0.931218 -0.364462 -0.485657 -0.874149 974.969 406.784)" fill="#7F8890"/>
<rect width="165.129" height="2.05733" transform="matrix(0.931218 -0.364462 -0.485657 -0.874149 957.919 399.363)" fill="#7F8890"/>
<rect width="165.129" height="2.05733" transform="matrix(0.931218 -0.364462 -0.485657 -0.874149 940.868 393.797)" fill="#7F8890"/>
<rect width="165.129" height="2.05733" transform="matrix(0.931218 -0.364462 -0.485657 -0.874149 926.659 383.196)" fill="#7F8890"/>
<rect width="165.129" height="2.05733" transform="matrix(0.931218 -0.364462 -0.485657 -0.874149 911.503 376.572)" fill="#7F8890"/>
<rect width="164.419" height="2.06834" transform="matrix(-0.91945 -0.393208 -0.518931 0.854816 1051.07 415.018)" fill="#7F8890"/>
<rect width="164.419" height="2.06834" transform="matrix(-0.91945 -0.393208 -0.518931 0.854816 1072.54 407.333)" fill="#7F8890"/>
<rect width="164.419" height="2.06834" transform="matrix(-0.91945 -0.393208 -0.518931 0.854816 1094.64 397.527)" fill="#F4EAF0"/>
<rect width="164.419" height="2.06834" transform="matrix(-0.91945 -0.393208 -0.518931 0.854816 1109.16 388.782)" fill="#F4EAF0"/>
<path d="M876.151 370.763C872.661 369.523 874.272 372.995 876.151 370.763L1012.72 422.001L1124.89 353.735L1118.3 351.796C1114.22 348.445 1113.87 342.869 1117.23 340.389C1120.59 337.909 1143.54 328.858 1143.54 328.858C1147.1 327.771 1149.45 327.59 1154.55 328.362C1154.55 328.362 1157.15 329.062 1160.83 330.082L1253.1 269.367L1191.47 258.928C1183.84 257.4 1180.94 257.408 1177.38 258.432L876.151 370.763Z" fill="url(#paint7_linear_74_104)" fill-opacity="0.4"/>
<path d="M1081.68 447.717C1090.7 448.964 1091.23 449.446 1096.82 447.717L1301.03 356.135C1301.03 356.135 1415.95 307.036 1418.37 305.796C1420.79 304.556 1422.16 300.026 1418.37 297.364L1337.58 272.22L1253.1 269.367L1160.83 330.082C1168.32 332.155 1180.31 335.545 1184.09 337.041C1189.73 339.273 1189.06 345.844 1186.24 347.58L1160.06 359.111C1155.01 360.768 1151.98 361.059 1146.09 359.979L1124.89 353.735L1012.72 422.001L1081.68 447.717Z" fill="url(#paint8_linear_74_104)" fill-opacity="0.4"/>
<path d="M1143.54 328.858C1143.54 328.858 1120.59 337.909 1117.23 340.389C1113.87 342.869 1114.22 348.445 1118.3 351.796L1124.89 353.735L1146.09 359.979C1151.98 361.059 1155.01 360.768 1160.06 359.111L1186.24 347.58C1189.06 345.844 1189.73 339.273 1184.09 337.041C1180.31 335.545 1168.32 332.155 1160.83 330.082C1157.15 329.062 1154.55 328.362 1154.55 328.362C1149.45 327.59 1147.1 327.771 1143.54 328.858Z" fill="url(#paint9_linear_74_104)" fill-opacity="0.4"/>
<g filter="url(#filter0_b_74_104)">
<path d="M858.577 367.305C856.697 369.536 862.035 363.136 865.526 364.375L997.852 406.921L1115.82 332.047L1109.24 330.108C1105.16 326.757 1104.81 321.181 1108.16 318.701C1111.52 316.221 1134.48 307.17 1134.48 307.17C1138.03 306.083 1140.38 305.902 1145.49 306.674C1145.49 306.674 1148.08 307.374 1151.77 308.394L1244.03 247.679L1182.41 237.24C1174.77 235.712 1171.87 235.72 1168.31 236.744L858.577 367.305Z" fill="url(#paint10_linear_74_104)" fill-opacity="0.6"/>
<path d="M1068.54 430.134C1077.55 431.381 1082.17 427.758 1087.76 426.029L1291.96 334.447C1291.96 334.447 1406.89 285.348 1409.3 284.108C1411.72 282.868 1413.1 278.338 1409.3 275.676L1244.03 247.679L1151.77 308.394C1159.26 310.467 1171.24 313.857 1175.02 315.353C1180.66 317.585 1179.99 324.156 1177.17 325.892L1150.99 337.423C1145.94 339.08 1142.92 339.371 1137.03 338.291L1115.82 332.047L997.852 406.921L1068.54 430.134Z" fill="url(#paint11_linear_74_104)" fill-opacity="0.6"/>
<path d="M1134.48 307.17C1134.48 307.17 1111.52 316.221 1108.16 318.701C1104.81 321.181 1105.16 326.757 1109.24 330.108L1115.82 332.047L1137.03 338.291C1142.92 339.371 1145.94 339.08 1150.99 337.423L1177.17 325.892C1179.99 324.156 1180.66 317.585 1175.02 315.353C1171.24 313.857 1159.26 310.467 1151.77 308.394C1148.08 307.374 1145.49 306.674 1145.49 306.674C1140.38 305.902 1138.03 306.083 1134.48 307.17Z" fill="url(#paint12_linear_74_104)" fill-opacity="0.6"/>
</g>
<path d="M828.175 356.231C826.192 358.671 827.042 363.009 830.725 364.364L990.102 392.353L1099.62 317.686L1092.67 315.566C1088.37 311.903 1088 305.806 1091.54 303.095C1095.08 300.384 1119.3 290.489 1119.3 290.489C1123.06 289.301 1125.54 289.103 1130.92 289.947C1130.92 289.947 1133.66 290.713 1137.55 291.827L1234.91 225.451L1169.88 214.038C1161.82 212.368 1158.76 212.377 1155 213.496L828.175 356.231Z" fill="#9F9F9F"/>
<path d="M1070 406.385C1079.52 407.747 1083.23 407.055 1089.13 405.165L1285.48 320.31C1285.48 320.31 1406.75 266.632 1409.3 265.277C1411.85 263.921 1413.3 258.969 1409.3 256.059L1234.91 225.451L1137.55 291.827C1145.45 294.093 1158.1 297.8 1162.09 299.435C1168.04 301.875 1167.33 309.059 1164.35 310.957L1136.73 323.563C1131.4 325.375 1128.21 325.693 1122 324.512L1099.62 317.686L990.102 392.353L1070 406.385Z" fill="#9F9F9F"/>
<path d="M1119.3 290.489C1119.3 290.489 1095.08 300.384 1091.54 303.095C1088 305.806 1088.37 311.903 1092.67 315.566L1099.62 317.686L1122 324.512C1128.21 325.693 1131.4 325.375 1136.73 323.563L1164.35 310.957C1167.33 309.059 1168.04 301.875 1162.09 299.435C1158.1 297.8 1145.45 294.093 1137.55 291.827C1133.66 290.713 1130.92 289.947 1130.92 289.947C1125.54 289.103 1123.06 289.301 1119.3 290.489Z" fill="#9F9F9F"/>
<path d="M827.325 353.52C825.341 355.96 826.191 360.297 829.875 361.653L989.252 389.642L1098.77 314.975L1091.82 312.854C1087.52 309.192 1087.15 303.095 1090.69 300.384C1094.23 297.673 1118.45 287.778 1118.45 287.778C1122.21 286.589 1124.69 286.392 1130.07 287.235C1130.07 287.235 1132.81 288.001 1136.7 289.116L1234.06 222.74L1169.03 211.327C1160.97 209.657 1157.91 209.665 1154.15 210.785L827.325 353.52Z" fill="url(#paint13_linear_74_104)"/>
<path d="M1069.15 403.673C1078.67 405.036 1082.38 404.343 1088.28 402.453L1284.63 317.599C1284.63 317.599 1405.9 263.921 1408.45 262.565C1411 261.21 1412.45 256.258 1408.45 253.348L1234.06 222.74L1136.7 289.116C1144.6 291.382 1157.25 295.088 1161.24 296.724C1167.19 299.164 1166.48 306.348 1163.5 308.246L1135.88 320.852C1130.55 322.663 1127.36 322.982 1121.15 321.801L1098.77 314.975L989.252 389.642L1069.15 403.673Z" fill="url(#paint14_linear_74_104)"/>
<path d="M1118.45 287.778C1118.45 287.778 1094.23 297.673 1090.69 300.384C1087.15 303.095 1087.52 309.192 1091.82 312.854L1098.77 314.975L1121.15 321.801C1127.36 322.982 1130.55 322.663 1135.88 320.852L1163.5 308.246C1166.48 306.348 1167.19 299.164 1161.24 296.724C1157.25 295.088 1144.6 291.382 1136.7 289.116C1132.81 288.001 1130.07 287.235 1130.07 287.235C1124.69 286.392 1122.21 286.589 1118.45 287.778Z" fill="white"/>
<defs>
<filter id="filter0_b_74_104" x="856.187" y="234.026" width="557.472" height="198.364" filterUnits="userSpaceOnUse" color-interpolation-filters="sRGB">
<feFlood flood-opacity="0" result="BackgroundImageFix"/>
<feGaussianBlur in="BackgroundImage" stdDeviation="1"/>
<feComposite in2="SourceAlpha" operator="in" result="effect1_backgroundBlur_74_104"/>
<feBlend mode="normal" in="SourceGraphic" in2="effect1_backgroundBlur_74_104" result="shape"/>
</filter>
<linearGradient id="paint0_linear_74_104" x1="891.876" y1="410.615" x2="1356.54" y2="303.286" gradientUnits="userSpaceOnUse">
<stop stop-color="#9989E7"/>
<stop offset="1" stop-color="#9989E7" stop-opacity="0"/>
</linearGradient>
<linearGradient id="paint1_linear_74_104" x1="827.55" y1="532.378" x2="1422.14" y2="503.975" gradientUnits="userSpaceOnUse">
<stop stop-color="#C2D6F7"/>
<stop offset="1" stop-color="#C2D6F7" stop-opacity="0.5"/>
</linearGradient>
<linearGradient id="paint2_linear_74_104" x1="836.908" y1="461.79" x2="1422.05" y2="444.619" gradientUnits="userSpaceOnUse">
<stop stop-color="#92B3E6"/>
<stop offset="1" stop-color="#92B3E6" stop-opacity="0.25"/>
</linearGradient>
<linearGradient id="paint3_linear_74_104" x1="1422" y1="449.419" x2="836.831" y2="470.554" gradientUnits="userSpaceOnUse">
<stop stop-color="#92B3E6"/>
<stop offset="1" stop-color="#92B3E6" stop-opacity="0.61"/>
</linearGradient>
<linearGradient id="paint4_linear_74_104" x1="816.39" y1="415.58" x2="1437.44" y2="386.954" gradientUnits="userSpaceOnUse">
<stop stop-color="#004D8D"/>
<stop offset="1" stop-color="#004D8D" stop-opacity="0.58"/>
</linearGradient>
<linearGradient id="paint5_linear_74_104" x1="811.14" y1="410.122" x2="1478.06" y2="378.128" gradientUnits="userSpaceOnUse">
<stop stop-color="#004D8D" stop-opacity="0.48"/>
<stop offset="0.471875" stop-color="#004D8D" stop-opacity="0.725375"/>
<stop offset="1" stop-color="#736FE8"/>
</linearGradient>
<linearGradient id="paint6_linear_74_104" x1="891.876" y1="414.409" x2="1356.54" y2="307.081" gradientUnits="userSpaceOnUse">
<stop stop-color="#7E7E7E"/>
<stop offset="1" stop-color="#004D8D" stop-opacity="0"/>
</linearGradient>
<linearGradient id="paint7_linear_74_104" x1="1420.73" y1="291.33" x2="980.878" y2="440.308" gradientUnits="userSpaceOnUse">
<stop stop-color="#92B3E6"/>
<stop offset="1" stop-color="#CFE2E9"/>
</linearGradient>
<linearGradient id="paint8_linear_74_104" x1="1420.73" y1="291.33" x2="980.878" y2="440.308" gradientUnits="userSpaceOnUse">
<stop stop-color="#92B3E6"/>
<stop offset="1" stop-color="#CFE2E9"/>
</linearGradient>
<linearGradient id="paint9_linear_74_104" x1="1420.73" y1="291.33" x2="980.878" y2="440.308" gradientUnits="userSpaceOnUse">
<stop stop-color="#92B3E6"/>
<stop offset="1" stop-color="#CFE2E9"/>
</linearGradient>
<linearGradient id="paint10_linear_74_104" x1="1411.66" y1="269.643" x2="987.915" y2="395.992" gradientUnits="userSpaceOnUse">
<stop stop-color="#C3CCD1"/>
<stop offset="1" stop-color="#D0D0D0"/>
</linearGradient>
<linearGradient id="paint11_linear_74_104" x1="1411.66" y1="269.643" x2="987.915" y2="395.992" gradientUnits="userSpaceOnUse">
<stop stop-color="#C3CCD1"/>
<stop offset="1" stop-color="#D0D0D0"/>
</linearGradient>
<linearGradient id="paint12_linear_74_104" x1="1411.66" y1="269.643" x2="987.915" y2="395.992" gradientUnits="userSpaceOnUse">
<stop stop-color="#C3CCD1"/>
<stop offset="1" stop-color="#D0D0D0"/>
</linearGradient>
<linearGradient id="paint13_linear_74_104" x1="815.375" y1="354.497" x2="1234.36" y2="217.048" gradientUnits="userSpaceOnUse">
<stop stop-color="#C8C8C8"/>
<stop offset="1" stop-color="#F5F5F5"/>
</linearGradient>
<linearGradient id="paint14_linear_74_104" x1="1405.85" y1="237.246" x2="967.969" y2="403.077" gradientUnits="userSpaceOnUse">
<stop stop-color="#FCFCFC"/>
<stop offset="1" stop-color="#F4F4F4"/>
</linearGradient>
</defs>
</svg>
